<svg xmlns="http://www.w3.org/2000/svg"  viewBox="0 0 24 24" width="24px" height="24px"><path d="M 12 1.5 C 11.824625 1.5 11.648687 1.5461719 11.492188 1.6386719 L 1.9921875 7.2265625 C 1.5161875 7.5065625 1.3586719 8.1197031 1.6386719 8.5957031 C 1.9176719 9.0697031 2.526 9.228125 3 8.953125 L 3 20 C 3 20.552 3.448 21 4 21 L 8 21 L 8 12 C 8 11.448 8.448 11 9 11 L 15 11 C 15.552 11 16 11.448 16 12 L 16 21 L 20 21 C 20.552 21 21 20.552 21 20 L 21 8.953125 C 21.157 9.044125 21.328047 9.0878906 21.498047 9.0878906 C 21.841047 9.0878906 22.175328 8.9127031 22.361328 8.5957031 C 22.641328 8.1197031 22.483813 7.5055625 22.007812 7.2265625 L 12.507812 1.6386719 C 12.351813 1.5461719 12.175375 1.5 12 1.5 z M 10 13 L 10 21 L 14 21 L 14 13 L 10 13 z"/></svg>